<?xml version="1.0" encoding="utf-8"?>
<!-- Generator: Adobe Illustrator 19.0.0, SVG Export Plug-In . SVG Version: 6.00 Build 0)  -->
<svg version="1.1" id="Layer_1" xmlns="http://www.w3.org/2000/svg" xmlns:xlink="http://www.w3.org/1999/xlink" x="0px" y="0px"
	 viewBox="0 0 96 96" style="enable-background:new 0 0 96 96;" xml:space="preserve">
<style type="text/css">
	.st0{fill:#333333;}
</style>
<g id="XMLID_2_">
	<path id="XMLID_7_" class="st0" d="M71.6,48c-3.1-4.8-7-8.4-11.7-10.8c1.2,2.1,1.9,4.4,1.9,6.9c0,3.8-1.3,7-4,9.7
		c-2.7,2.7-5.9,4-9.7,4c-3.8,0-7-1.3-9.7-4c-2.7-2.7-4-5.9-4-9.7c0-2.5,0.6-4.8,1.9-6.9c-4.7,2.4-8.6,6-11.7,10.8
		c2.7,4.2,6.1,7.5,10.2,10s8.5,3.7,13.3,3.7s9.2-1.2,13.3-3.7S68.9,52.2,71.6,48z M49.5,36.2c0-0.4-0.1-0.8-0.4-1
		c-0.3-0.3-0.6-0.4-1-0.4c-2.6,0-4.8,0.9-6.6,2.7s-2.7,4-2.7,6.6c0,0.4,0.1,0.8,0.4,1s0.6,0.4,1,0.4s0.8-0.1,1-0.4
		c0.3-0.3,0.4-0.6,0.4-1c0-1.8,0.6-3.3,1.9-4.5c1.2-1.2,2.8-1.9,4.5-1.9c0.4,0,0.8-0.1,1-0.4C49.3,37,49.5,36.6,49.5,36.2z M75.5,48
		c0,0.7-0.2,1.4-0.6,2.1c-2.9,4.7-6.7,8.5-11.6,11.3s-9.9,4.3-15.3,4.3s-10.5-1.4-15.3-4.3S24,54.8,21.1,50.1
		c-0.4-0.7-0.6-1.4-0.6-2.1s0.2-1.4,0.6-2.1c2.9-4.7,6.7-8.5,11.6-11.3s9.9-4.3,15.3-4.3s10.5,1.4,15.3,4.3s8.7,6.6,11.6,11.3
		C75.3,46.6,75.5,47.3,75.5,48z"/>
</g>
</svg>
