<?xml version="1.0" encoding="UTF-8"?>
<svg width="20px" height="15px" viewBox="0 0 20 15" version="1.1" xmlns="http://www.w3.org/2000/svg" xmlns:xlink="http://www.w3.org/1999/xlink">
    <!-- Generator: Sketch 3.8.1 (29687) - http://www.bohemiancoding.com/sketch -->
    <title>Shape</title>
    <desc>Created with Sketch.</desc>
    <defs></defs>
    <g id="Page-1" stroke="none" stroke-width="1" fill="none" fill-rule="evenodd">
        <path d="M19.58724,2.77429957 C19.3514782,1.929533 18.6913598,1.26941461 17.8465932,1.03365282 C16.2876807,0.61599764 10.0136829,0.61599764 10.0136829,0.61599764 C10.0136829,0.61599764 3.75552428,0.607661209 2.1807725,1.03365282 C1.33600593,1.26941461 0.67588754,1.929533 0.440125755,2.77429957 C0.144616452,4.37031805 -0.00107105063,5.99046355 0.00496406817,7.61359765 C6.98589958e-05,9.23060698 0.145752586,10.8445595 0.440125755,12.4345556 C0.67588754,13.2793221 1.33600593,13.9394405 2.1807725,14.1752023 C3.73801778,14.5936911 10.0136829,14.5936911 10.0136829,14.5936911 C10.0136829,14.5936911 16.2710078,14.5936911 17.8465932,14.1752023 C18.6913598,13.9394405 19.3514782,13.2793221 19.58724,12.4345556 C19.8754631,10.8439836 20.0150056,9.23003573 20.0040615,7.61359765 C20.0161464,5.99103693 19.8765993,4.37089611 19.58724,2.77429957 L19.58724,2.77429957 Z M8.0112722,10.6072099 L8.0112722,4.61081528 L13.2332124,7.61359765 L8.0112722,10.6072099 Z" id="Shape" fill="#757575"></path>
    </g>
</svg>